<?xml version="1.0" standalone="no"?>
<!DOCTYPE svg PUBLIC "-//W3C//DTD SVG 20010904//EN"
 "http://www.w3.org/TR/2001/REC-SVG-20010904/DTD/svg10.dtd">
<svg version="1.0" xmlns="http://www.w3.org/2000/svg"
 width="293.000000pt" height="293.000000pt" viewBox="0 0 293.000000 293.000000"
 preserveAspectRatio="xMidYMid meet">
<metadata>
Created by potrace 1.11, written by Peter Selinger 2001-2013
</metadata>
<g transform="translate(0.000000,293.000000) scale(0.100000,-0.100000)"
fill="#000000" stroke="none">
<path d="M1216 2908 c-264 -24 -469 -110 -608 -256 -96 -100 -213 -298 -261
-442 -14 -40 -14 -46 -1 -57 12 -9 27 -7 67 6 29 10 65 21 81 25 l30 7 -43
-46 c-23 -26 -56 -75 -72 -110 -27 -56 -36 -66 -82 -89 -96 -47 -159 -117
-171 -188 -5 -30 19 -75 44 -83 11 -3 20 -15 20 -26 0 -25 0 -23 11 -61 10
-37 -2 -79 -34 -113 -10 -11 -31 -48 -48 -81 -33 -70 -38 -137 -14 -184 15
-29 26 -34 72 -32 30 1 39 -19 46 -102 3 -49 1 -79 -10 -105 -19 -44 -24 -157
-10 -191 28 -65 67 -79 124 -45 l37 23 19 -52 c10 -28 22 -76 26 -107 16 -111
69 -173 126 -147 14 6 25 15 25 20 0 16 23 3 26 -14 5 -38 17 -59 54 -92 22
-20 49 -36 59 -36 11 0 25 -13 34 -32 22 -46 72 -95 104 -101 18 -3 32 2 47
17 l21 21 45 -22 c25 -13 72 -26 105 -29 33 -3 84 -18 114 -32 56 -27 146 -37
186 -22 11 4 41 4 67 0 32 -4 68 -1 113 10 39 10 87 15 115 12 39 -4 58 1 96
22 25 14 62 26 81 26 19 0 48 7 64 16 17 8 58 17 92 19 34 2 86 6 114 9 67 7
103 -6 103 -36 0 -43 -11 -64 -41 -82 -57 -33 -30 -101 45 -113 77 -12 162 44
214 142 23 43 27 62 27 140 0 103 -17 143 -84 192 l-39 28 22 27 c18 23 74 54
81 46 2 -2 21 -40 44 -86 37 -74 63 -104 77 -89 3 2 18 41 34 86 51 145 105
224 171 252 36 14 42 33 20 61 -29 37 -79 129 -96 177 -24 68 -27 140 -10 196
29 97 16 116 -53 73 -34 -21 -35 -21 -27 -2 11 27 15 200 5 254 -4 25 -11 63
-14 85 -8 53 -24 100 -52 155 -20 41 -21 53 -14 110 13 101 4 266 -18 340 -27
90 -73 178 -117 222 -34 34 -131 88 -157 88 -6 0 -33 14 -60 32 -61 38 -135
49 -173 24 -30 -20 -32 -50 -5 -94 18 -29 19 -38 9 -73 -9 -28 -9 -45 -1 -63
8 -18 7 -28 -4 -45 -21 -29 -37 -26 -77 14 -28 28 -43 35 -73 35 -22 0 -45 -4
-53 -9 -18 -11 -57 7 -86 39 -33 37 -73 51 -141 51 -35 0 -69 -3 -75 -7 -6 -3
-15 -1 -19 6 -13 21 9 89 45 143 19 28 35 56 35 62 0 5 9 21 20 35 11 14 20
36 20 50 0 18 8 29 28 38 46 21 65 40 65 67 0 54 -84 101 -167 93 -25 -3 -48
-2 -52 1 -8 8 -172 8 -268 -1z"/>
</g>
</svg>
